<?xml version="1.0" encoding="UTF-8"?>
<svg id="Ebene_1" xmlns="http://www.w3.org/2000/svg" version="1.1" viewBox="0 0 2000 412.7">
  <!-- Generator: Adobe Illustrator 29.3.1, SVG Export Plug-In . SVG Version: 2.1.0 Build 151)  -->
  <defs>
    <style>
      .st0 {
        fill: #fff;
      }
    </style>
  </defs>
  <g>
    <path class="st0" d="M533.9,385.4v-71h40.6c3.7,0,7.1.7,10.1,2.2,3,1.4,5.4,3.5,7.1,6.1,1.7,2.6,2.6,5.7,2.6,9.2s-.5,5.3-1.6,7.6c-1,2.2-2.4,4-4.2,5.5-1.8,1.4-3.7,2.5-6,3.2v.4c2.6.6,4.9,1.6,7,3.1,2,1.5,3.7,3.5,4.9,5.8,1.2,2.4,1.8,5.2,1.8,8.4s-1,7.9-2.9,10.8c-2,2.9-4.6,5.1-7.8,6.5-3.2,1.4-6.9,2.2-10.9,2.2h-40.7ZM549.4,343.1h20.5c1.9,0,3.4-.4,4.7-1.1,1.3-.7,2.2-1.7,2.9-2.9.7-1.2,1-2.6,1-4.2,0-2.7-.7-4.7-2.2-6.1-1.5-1.4-3.4-2.1-5.8-2.1h-21v16.4ZM549.4,372.8h22.2c2.6,0,4.6-.7,6.3-2.2,1.6-1.4,2.4-3.7,2.4-6.7s-.3-3.3-1-4.7c-.7-1.3-1.7-2.3-3.1-3.1-1.4-.7-3.1-1.1-5.3-1.1h-21.5v17.7Z"/>
    <path class="st0" d="M632.2,386.6c-6,0-11-1-15.1-3.1-4.1-2-7.1-5.2-9.2-9.4-2.1-4.2-3.1-9.6-3.1-16s1-11.9,3.1-16.1,5.1-7.3,9.2-9.3c4-2,9-3.1,14.9-3.1s10.2,1,14,2.9c3.8,2,6.7,5,8.6,9.1,1.9,4.1,2.9,9.4,2.9,15.9v3.7h-38c.1,3.2.6,5.9,1.5,8.1.9,2.2,2.2,3.8,4,4.9,1.8,1.1,4.3,1.6,7.3,1.6s3.2-.2,4.5-.6c1.3-.4,2.5-1,3.5-1.9,1-.8,1.7-1.9,2.3-3.1.6-1.2.8-2.7.8-4.2h14.1c0,3.5-.6,6.5-1.9,9-1.2,2.6-3,4.7-5.2,6.4-2.2,1.7-4.8,3-7.9,3.8-3.1.9-6.5,1.3-10.2,1.3ZM619.5,352.3h23c0-2.1-.3-3.9-.8-5.4-.5-1.5-1.2-2.8-2.1-3.7-.9-1-2-1.7-3.3-2.1-1.3-.4-2.7-.7-4.3-.7-2.6,0-4.8.4-6.6,1.3s-3.1,2.2-4,3.9c-.9,1.8-1.6,4-1.9,6.7Z"/>
    <path class="st0" d="M670.3,385.4v-43.4h-7.8v-11.1h7.8v-6c0-3,.5-5.6,1.5-7.9,1-2.3,2.6-4.1,4.8-5.4,2.2-1.3,5.1-2,8.8-2s2.1,0,3.3.2c1.1.1,2.2.3,3.3.6,1.1.2,2,.5,2.7.8v9.5h-5.2c-1.7,0-2.9.4-3.7,1.2-.8.8-1.2,2-1.2,3.6v5.4h10v11.1h-10v43.4h-14.4Z"/>
    <path class="st0" d="M726,386.6c-5.9,0-11-1-15.1-3.1-4.1-2-7.3-5.2-9.4-9.4-2.1-4.2-3.2-9.6-3.2-16s1.1-11.9,3.2-16.1c2.1-4.2,5.3-7.3,9.4-9.3,4.1-2,9.2-3.1,15.1-3.1s11.2,1,15.3,3.1c4.1,2,7.2,5.1,9.4,9.3,2.1,4.2,3.2,9.5,3.2,16.1s-1.1,11.7-3.2,16c-2.1,4.2-5.3,7.4-9.4,9.4-4.1,2-9.2,3.1-15.3,3.1ZM709.2,322.7v-12.1h12.3v12.1h-12.3ZM726,375.5c3.2,0,5.7-.6,7.6-1.8,1.9-1.2,3.3-3,4.2-5.4.9-2.4,1.3-5.4,1.3-8.9v-2.5c0-3.5-.4-6.5-1.3-8.9-.9-2.4-2.3-4.2-4.2-5.4-1.9-1.2-4.4-1.8-7.6-1.8s-5.6.6-7.5,1.8c-1.9,1.2-3.3,3-4.2,5.4-.9,2.4-1.3,5.4-1.3,8.9v2.5c0,3.5.4,6.5,1.3,8.9.9,2.4,2.3,4.2,4.2,5.4,1.9,1.2,4.4,1.8,7.5,1.8ZM730.6,322.7v-12.1h12.3v12.1h-12.3Z"/>
    <path class="st0" d="M764.4,385.4v-54.4h11.9l1.1,8.5h.7c.7-1.8,1.6-3.4,2.7-4.9,1.1-1.5,2.5-2.7,4.1-3.6,1.7-.9,3.6-1.3,5.8-1.3s2.2.1,3.2.4c1,.2,1.7.5,2.2.7v13h-4.5c-2.1,0-4,.3-5.6.9-1.6.6-3,1.5-4.1,2.7-1.1,1.2-1.9,2.8-2.4,4.6-.5,1.8-.8,3.9-.8,6.3v27.2h-14.4Z"/>
    <path class="st0" d="M821.9,386.6c-4.5,0-8.4-1-11.6-3.1-3.3-2-5.8-5.2-7.6-9.4-1.8-4.2-2.7-9.6-2.7-16.1s.9-11.9,2.7-16.1c1.8-4.2,4.3-7.3,7.6-9.3,3.2-2,6.9-3,11.1-3s4.5.3,6.6.8c2,.5,3.8,1.3,5.4,2.4,1.6,1.1,2.9,2.4,4,4h.6v-26.4h14.4v74.8h-11.8l-1.1-7.3h-.7c-1.8,2.9-4.1,5.1-7,6.5-2.9,1.4-6.1,2.1-9.7,2.1ZM826.5,374.8c2.7,0,4.9-.6,6.6-1.9,1.7-1.2,2.9-3,3.8-5.4.8-2.3,1.2-5.1,1.2-8.4v-1.9c0-2.4-.2-4.6-.7-6.6-.5-2-1.2-3.7-2.1-5-1-1.3-2.2-2.4-3.6-3.1-1.4-.7-3.2-1.1-5.2-1.1-2.9,0-5.2.6-6.9,1.7-1.7,1.1-3,2.9-3.7,5.2-.8,2.3-1.1,5.2-1.1,8.6v2.4c0,3.5.4,6.3,1.1,8.6.8,2.3,2,4,3.7,5.1,1.7,1.1,4,1.7,6.9,1.7Z"/>
    <path class="st0" d="M890.4,386.6c-6,0-11-1-15.1-3.1-4.1-2-7.1-5.2-9.2-9.4s-3.1-9.6-3.1-16,1-11.9,3.1-16.1,5.1-7.3,9.2-9.3c4-2,9-3.1,14.9-3.1s10.2,1,14,2.9c3.8,2,6.7,5,8.6,9.1,1.9,4.1,2.9,9.4,2.9,15.9v3.7h-38c.1,3.2.6,5.9,1.5,8.1.9,2.2,2.2,3.8,4,4.9,1.8,1.1,4.3,1.6,7.3,1.6s3.2-.2,4.5-.6c1.3-.4,2.5-1,3.5-1.9,1-.8,1.7-1.9,2.3-3.1.6-1.2.8-2.7.8-4.2h14.1c0,3.5-.6,6.5-1.9,9-1.2,2.6-3,4.7-5.2,6.4-2.2,1.7-4.8,3-7.9,3.8-3.1.9-6.5,1.3-10.2,1.3ZM877.7,352.3h23c0-2.1-.3-3.9-.8-5.4-.5-1.5-1.2-2.8-2.1-3.7-.9-1-2-1.7-3.3-2.1-1.3-.4-2.7-.7-4.3-.7-2.6,0-4.8.4-6.6,1.3s-3.1,2.2-4,3.9c-.9,1.8-1.6,4-1.9,6.7Z"/>
    <path class="st0" d="M926.1,385.4v-54.4h11.9l1.1,8.5h.7c.7-1.8,1.6-3.4,2.7-4.9,1.1-1.5,2.5-2.7,4.1-3.6,1.7-.9,3.6-1.3,5.8-1.3s2.2.1,3.2.4c1,.2,1.7.5,2.2.7v13h-4.5c-2.1,0-4,.3-5.6.9-1.6.6-3,1.5-4.1,2.7-1.1,1.2-1.9,2.8-2.4,4.6-.5,1.8-.8,3.9-.8,6.3v27.2h-14.4Z"/>
    <path class="st0" d="M983,386.6c-5.5,0-9.9-1.5-13.1-4.6-3.2-3-4.9-7.9-4.9-14.7v-36.4h14.4v34c0,1.8.2,3.3.6,4.5.4,1.2,1,2.2,1.8,2.9.8.8,1.8,1.3,3,1.7,1.2.3,2.5.5,3.9.5,2.1,0,4.1-.5,5.8-1.6,1.7-1,3.1-2.5,4-4.3,1-1.8,1.4-3.9,1.4-6.2v-31.7h14.4v54.4h-11.8l-1-7.5h-.7c-1.3,1.7-2.8,3.2-4.6,4.6-1.8,1.3-3.7,2.3-5.9,3.1-2.2.7-4.6,1.1-7.2,1.1Z"/>
    <path class="st0" d="M1027.6,385.4v-54.4h11.9l1.1,7.4h.7c1.2-1.8,2.7-3.3,4.5-4.7,1.8-1.3,3.7-2.3,6-3,2.2-.7,4.6-1,7.2-1s6.7.7,9.4,2c2.7,1.3,4.8,3.4,6.3,6.2,1.5,2.8,2.2,6.5,2.2,11.1v36.4h-14.4v-34.2c0-1.7-.2-3.2-.6-4.4s-1-2.2-1.8-3c-.8-.8-1.8-1.4-2.9-1.7-1.2-.3-2.5-.5-3.9-.5-2.1,0-4.1.5-5.8,1.6-1.7,1-3.1,2.4-4,4.2-1,1.8-1.4,3.9-1.4,6.2v31.8h-14.4Z"/>
    <path class="st0" d="M1098.8,404.8c-2.4,0-4.7-.5-6.8-1.5-2.1-1-3.9-2.5-5.2-4.4-1.3-1.9-2-4.2-2-6.9s.9-5.5,2.6-7.3c1.8-1.8,3.7-3.2,6-4.1-1.6-.9-2.9-2.1-3.9-3.5-1-1.4-1.5-3.1-1.5-5.1s1-4.9,2.9-6.6c2-1.7,4.2-2.8,6.8-3.3-2.6-1.6-4.5-3.6-5.9-6.1-1.4-2.4-2.1-5.2-2.1-8.2s1-7.2,2.9-9.9c2-2.7,4.8-4.7,8.5-6.2,3.7-1.4,8.1-2.1,13.1-2.1s3.9.1,5.6.3c1.8.2,3.4.6,4.8,1,2.6-1.5,4.3-3.2,5.2-5,.9-1.8,1.4-3.3,1.5-4.4h13.4c0,2.6-.5,4.8-1.4,6.6-.9,1.9-2.3,3.4-4,4.6-1.7,1.2-3.8,2.1-6.2,2.6,1.8,1.5,3.2,3.3,4.1,5.5,1,2.1,1.5,4.5,1.5,6.9,0,3.9-.9,7.2-2.8,9.9-1.9,2.7-4.5,4.8-7.9,6.3-3.4,1.4-7.5,2.2-12.3,2.2h-8.3c-1.7,0-2.9.3-3.7.9s-1.2,1.4-1.2,2.5.4,1.7,1.1,2.3,1.9,1,3.6,1h22.7c4.6,0,8.2,1.4,10.9,4.2,2.7,2.8,4.1,6.4,4.1,10.7s-.9,6.2-2.6,8.8c-1.7,2.6-4.1,4.6-7.1,6-3,1.4-6.5,2.2-10.5,2.2h-25.9ZM1104.8,395.2h19.1c1.2,0,2.3-.2,3.3-.7,1-.4,1.7-1.1,2.3-1.9.6-.8.8-1.7.8-2.7,0-1.8-.6-3.1-1.7-4-1.1-.9-2.5-1.3-4.1-1.3h-19.8c-1.7,0-3,.5-4.1,1.4-1.1,1-1.6,2.2-1.6,3.8s.5,2.9,1.6,3.9c1.1,1,2.4,1.5,4.1,1.5ZM1114.2,356.9c3.4,0,5.9-.8,7.7-2.3,1.8-1.6,2.6-3.8,2.6-6.7s-.9-5.1-2.6-6.7c-1.8-1.6-4.3-2.3-7.7-2.3s-5.8.8-7.6,2.3c-1.8,1.6-2.6,3.8-2.6,6.7s.4,3.5,1.1,4.9c.8,1.4,1.9,2.4,3.4,3.1,1.5.7,3.4,1,5.7,1Z"/>
    <path class="st0" d="M1168.7,385.4v-6.1l26.6-37.3h-24.9v-11.1h45.7v5.9l-26.7,37.4h27.7v11.2h-48.4Z"/>
    <path class="st0" d="M1244.3,386.6c-5.5,0-9.9-1.5-13.1-4.6-3.2-3-4.9-7.9-4.9-14.7v-36.4h14.4v34c0,1.8.2,3.3.6,4.5.4,1.2,1,2.2,1.8,2.9.8.8,1.8,1.3,3,1.7,1.2.3,2.5.5,3.9.5,2.1,0,4.1-.5,5.8-1.6,1.7-1,3.1-2.5,4-4.3,1-1.8,1.5-3.9,1.5-6.2v-31.7h14.4v54.4h-11.8l-1-7.5h-.7c-1.3,1.7-2.8,3.2-4.6,4.6-1.8,1.3-3.7,2.3-5.9,3.1-2.2.7-4.6,1.1-7.2,1.1Z"/>
    <path class="st0" d="M1288.9,385.4v-54.4h11.9l1.1,7.4h.7c1.2-1.8,2.6-3.3,4.2-4.7,1.6-1.3,3.4-2.3,5.5-3,2-.7,4.2-1,6.6-1,3.4,0,6.4.7,9,2.1,2.5,1.4,4.5,3.6,5.8,6.6h.7c1.2-1.8,2.6-3.3,4.2-4.7,1.7-1.3,3.6-2.3,5.7-3,2.1-.7,4.4-1,6.8-1,3.5,0,6.4.6,9,1.9s4.5,3.3,6,6.1c1.4,2.8,2.2,6.4,2.2,10.8v36.9h-14.4v-34.4c0-1.7-.2-3.2-.6-4.4-.4-1.2-.9-2.2-1.6-2.9-.7-.7-1.6-1.3-2.6-1.6-1-.3-2.1-.5-3.3-.5-1.9,0-3.7.5-5.2,1.6-1.5,1-2.7,2.4-3.6,4.2-.9,1.8-1.3,3.9-1.3,6.2v31.8h-14.4v-34.4c0-1.7-.2-3.2-.6-4.4-.4-1.2-.9-2.2-1.6-2.9s-1.5-1.3-2.5-1.6c-1-.3-2.1-.5-3.4-.5-1.9,0-3.6.5-5.1,1.6-1.6,1-2.8,2.4-3.6,4.2-.9,1.8-1.3,3.9-1.3,6.2v31.8h-14.4Z"/>
    <path class="st0" d="M1395.4,385.4l27.3-71h19l27.3,71h-16.7l-5.1-14h-30.9l-5.1,14h-15.9ZM1420.8,359h22l-6.3-17.5c-.3-.8-.6-1.7-1-2.7s-.8-2.3-1.2-3.6c-.4-1.3-.8-2.6-1.2-3.9-.4-1.3-.7-2.4-1.1-3.5h-.6c-.3,1.3-.8,2.8-1.3,4.6-.6,1.8-1.1,3.5-1.7,5.1-.6,1.6-1,2.9-1.3,4l-6.3,17.5Z"/>
    <path class="st0" d="M1476.3,385.4v-54.4h11.9l1.1,8.5h.7c.7-1.8,1.6-3.4,2.7-4.9,1.1-1.5,2.5-2.7,4.1-3.6,1.7-.9,3.6-1.3,5.8-1.3s2.2.1,3.2.4c1,.2,1.7.5,2.2.7v13h-4.5c-2.1,0-4,.3-5.6.9-1.6.6-3,1.5-4.1,2.7s-1.9,2.8-2.4,4.6c-.5,1.8-.8,3.9-.8,6.3v27.2h-14.4Z"/>
    <path class="st0" d="M1546,386.6c-3.5,0-6.7-.7-9.7-2.1s-5.3-3.6-7.1-6.5h-.7l-1.1,7.3h-11.8v-74.8h14.4v26.4h.6c1.1-1.6,2.4-2.9,4-4,1.6-1.1,3.4-1.9,5.4-2.4,2-.5,4.2-.8,6.5-.8,4.3,0,8,1,11.2,3,3.2,2,5.7,5.1,7.5,9.3,1.8,4.2,2.7,9.5,2.7,16.1s-.9,11.9-2.6,16.1-4.3,7.3-7.6,9.4c-3.3,2-7.2,3.1-11.7,3.1ZM1541.6,374.8c2.9,0,5.2-.6,6.9-1.7,1.7-1.1,2.9-2.8,3.7-5.1.8-2.3,1.1-5.1,1.1-8.6v-2.4c0-3.4-.4-6.3-1.1-8.6-.8-2.3-2-4-3.7-5.2-1.7-1.1-4-1.7-6.9-1.7s-3.8.4-5.3,1.1c-1.4.7-2.6,1.8-3.6,3.1-.9,1.3-1.6,3-2.1,5-.5,2-.7,4.2-.7,6.6v1.9c0,3.2.4,6,1.2,8.4.8,2.3,2.1,4.1,3.8,5.4,1.7,1.2,3.9,1.9,6.6,1.9Z"/>
    <path class="st0" d="M1603.3,386.6c-6,0-11-1-15.1-3.1-4.1-2-7.1-5.2-9.2-9.4s-3.1-9.6-3.1-16,1-11.9,3.1-16.1,5.1-7.3,9.2-9.3,9-3.1,14.9-3.1,10.2,1,14,2.9c3.8,2,6.7,5,8.6,9.1s2.9,9.4,2.9,15.9v3.7h-38c.1,3.2.6,5.9,1.5,8.1.9,2.2,2.2,3.8,4,4.9,1.8,1.1,4.3,1.6,7.3,1.6s3.2-.2,4.5-.6c1.3-.4,2.5-1,3.5-1.9,1-.8,1.7-1.9,2.3-3.1.6-1.2.8-2.7.8-4.2h14.1c0,3.5-.6,6.5-1.9,9-1.2,2.6-3,4.7-5.2,6.4-2.2,1.7-4.8,3-7.9,3.8-3.1.9-6.5,1.3-10.2,1.3ZM1590.6,352.3h23c0-2.1-.3-3.9-.8-5.4-.5-1.5-1.2-2.8-2.1-3.7-.9-1-2-1.7-3.3-2.1-1.3-.4-2.7-.7-4.3-.7-2.6,0-4.8.4-6.6,1.3s-3.1,2.2-4,3.9c-.9,1.8-1.6,4-1.9,6.7Z"/>
    <path class="st0" d="M1639,323v-12.4h14.4v12.4h-14.4ZM1639,385.4v-54.4h14.4v54.4h-14.4Z"/>
    <path class="st0" d="M1682.8,386.6c-3.5,0-6.2-.6-8.4-1.9-2.1-1.2-3.7-2.9-4.7-5-1-2.1-1.5-4.4-1.5-7v-30.7h-6.7v-11.1h7.2l2.7-15.5h11.2v15.5h9.9v11.1h-9.9v28.4c0,1.7.4,2.9,1.1,3.8.8.9,2,1.3,3.7,1.3h5.1v9.5c-.8.3-1.8.5-2.9.8-1.1.2-2.3.4-3.5.6-1.2.2-2.4.3-3.4.3Z"/>
    <path class="st0" d="M1724,386.6c-3.8,0-7.2-.4-10.2-1.2-3-.8-5.6-2-7.8-3.5s-3.8-3.3-4.9-5.3c-1.1-2.1-1.7-4.4-1.7-7v-.8c0-.3,0-.5.1-.6h13.9v.8c0,1.7.6,3.1,1.7,4.2s2.4,1.8,4.1,2.3c1.7.5,3.5.7,5.3.7s3.3-.2,4.8-.5c1.6-.3,2.9-.9,3.9-1.7,1.1-.8,1.6-1.9,1.6-3.2s-.7-2.9-2-3.8c-1.3-.9-3.1-1.6-5.3-2.2-2.2-.6-4.5-1.2-7.1-1.9-2.3-.6-4.7-1.2-7-1.9-2.3-.7-4.5-1.7-6.4-2.8-1.9-1.2-3.4-2.7-4.6-4.6-1.2-1.9-1.8-4.3-1.8-7.2s.6-5.3,1.9-7.4c1.2-2.1,2.9-3.8,5.1-5.2,2.2-1.4,4.7-2.4,7.7-3.1,2.9-.7,6.1-1,9.5-1s6.1.3,8.9,1c2.8.7,5.2,1.6,7.2,2.9s3.7,2.9,4.9,4.8,1.8,4,1.8,6.4v1.3c0,.4,0,.7-.1.8h-13.8v-.8c0-1.2-.4-2.3-1.1-3.2-.8-.9-1.8-1.5-3.3-2-1.4-.5-3.1-.7-5.1-.7s-2.6.1-3.8.3-2.1.5-2.9.9-1.5.9-1.9,1.5c-.4.6-.7,1.3-.7,2.1,0,1.2.5,2.1,1.5,2.8,1,.7,2.3,1.3,4,1.8s3.5,1,5.5,1.6c2.5.7,5.1,1.4,7.8,2,2.7.7,5.3,1.5,7.6,2.6,2.3,1.1,4.2,2.7,5.7,4.7,1.4,2,2.2,4.8,2.2,8.2s-.6,6.1-1.9,8.4c-1.3,2.3-3.1,4.1-5.3,5.5-2.3,1.4-4.9,2.4-8,3-3,.6-6.3.9-9.8.9Z"/>
    <path class="st0" d="M1759.5,403.8v-72.9h11.8l1.2,7.3h.7c1.8-3,4.1-5.1,7-6.5,2.9-1.4,6.1-2.1,9.6-2.1s8.5,1,11.7,3c3.3,2,5.8,5.1,7.6,9.3,1.8,4.2,2.6,9.6,2.6,16.2s-.9,11.7-2.7,15.9c-1.8,4.2-4.3,7.3-7.5,9.4-3.2,2-7,3.1-11.2,3.1s-4.5-.3-6.5-.8c-2-.5-3.8-1.3-5.4-2.4s-2.9-2.4-4-4h-.6v24.4h-14.4ZM1785.5,374.8c2.9,0,5.2-.6,6.9-1.7,1.7-1.1,2.9-2.9,3.7-5.2.8-2.3,1.1-5.2,1.1-8.5v-2.4c0-3.4-.4-6.3-1.1-8.6-.8-2.3-2-4-3.7-5.2-1.7-1.1-4-1.7-6.9-1.7s-4.9.6-6.6,1.9c-1.7,1.2-3,3-3.8,5.4-.8,2.3-1.2,5.2-1.2,8.5v1.8c0,2.4.2,4.6.7,6.6.5,2,1.2,3.6,2.1,5,.9,1.4,2.1,2.4,3.6,3.2,1.5.7,3.2,1.1,5.3,1.1Z"/>
    <path class="st0" d="M1822.4,385.4v-74.8h14.4v74.8h-14.4Z"/>
    <path class="st0" d="M1864.5,386.6c-1.8,0-3.7-.2-5.7-.6-2-.4-4-1.2-5.7-2.2-1.8-1.1-3.3-2.6-4.4-4.7-1.1-2-1.7-4.6-1.7-7.8s.8-6.9,2.5-9.4c1.7-2.5,4-4.4,7.1-5.8,3.1-1.4,6.7-2.4,11-2.9,4.3-.6,9-.8,14.2-.8v-4c0-1.6-.3-3-.8-4.1-.5-1.2-1.4-2.1-2.7-2.8-1.3-.7-3.1-1-5.3-1s-4.1.3-5.5.8-2.4,1.3-3,2.1c-.6.9-.9,1.8-.9,2.8v1.2h-14c0-.3-.1-.7-.1-1v-1.2c0-3.2,1-5.9,2.9-8.2,1.9-2.3,4.7-4.1,8.2-5.3,3.5-1.2,7.6-1.9,12.3-1.9s9.3.7,12.7,2c3.4,1.3,6,3.2,7.9,5.8,1.8,2.6,2.7,5.8,2.7,9.6v24.7c0,1.2.4,2.2,1.1,2.7.7.6,1.5.9,2.4.9h3.4v9.4c-.7.3-1.8.7-3.2,1.1-1.5.4-3.2.6-5.3.6s-3.8-.3-5.3-.9c-1.6-.6-2.8-1.4-3.9-2.5-1-1.1-1.8-2.4-2.2-3.9h-.7c-1.2,1.4-2.6,2.7-4.3,3.8-1.7,1.1-3.7,2-5.9,2.6s-4.8.9-7.7.9ZM1869.3,375.8c1.9,0,3.7-.3,5.2-.9,1.5-.6,2.8-1.4,3.8-2.4,1-1,1.8-2.2,2.4-3.7.6-1.5.9-3,.9-4.7v-3c-3.9,0-7.3.3-10.4.8-3,.5-5.4,1.4-7.2,2.6-1.8,1.2-2.6,3-2.6,5.2s.3,2.3.9,3.2c.6.9,1.5,1.6,2.7,2.1,1.2.5,2.6.7,4.2.7Z"/>
    <path class="st0" d="M1926.3,386.6c-3.4,0-6.2-.6-8.4-1.9s-3.7-2.9-4.7-5c-1-2.1-1.4-4.4-1.4-7v-30.7h-6.7v-11.1h7.2l2.7-15.5h11.2v15.5h9.9v11.1h-9.9v28.4c0,1.7.4,2.9,1.1,3.8.8.9,2,1.3,3.7,1.3h5.1v9.5c-.8.3-1.8.5-2.9.8-1.1.2-2.3.4-3.5.6-1.2.2-2.4.3-3.4.3Z"/>
    <path class="st0" d="M1941.2,385.4v-6.1l26.6-37.3h-24.9v-11.1h45.7v5.9l-26.7,37.4h27.7v11.2h-48.4Z"/>
  </g>
  <g>
    <path class="st0" d="M1199.3,217.1c-10.6,0-20.8-1-30.6-3.1-9.8-2.1-18.5-5.5-26-10.1-7.6-4.6-13.6-10.7-18.1-18.1-4.5-7.4-6.7-16.5-6.7-27.3s0-1.9.1-2.8c0-.9.1-1.9.1-2.8h27.3c0,.6,0,1.5-.1,2.7,0,1.2-.1,2.3-.1,3.3,0,7.6,2.3,14,6.8,19.4,4.6,5.3,10.9,9.3,18.9,11.8,8.1,2.6,17.2,3.8,27.5,3.8s9.3-.3,14.4-.9c5-.6,9.9-1.6,14.5-3,4.6-1.4,8.8-3.3,12.5-5.7,3.7-2.4,6.6-5.3,8.8-8.8,2.2-3.5,3.3-7.8,3.3-12.9s-1.9-11.8-5.6-16.1c-3.7-4.3-8.6-7.8-14.7-10.5-6.1-2.7-12.9-5.2-20.6-7.4-7.7-2.2-15.6-4.3-23.8-6.4-8.2-2.1-16.1-4.5-23.8-7.3-7.7-2.7-14.6-6.2-20.6-10.2-6.1-4.1-11-9.2-14.7-15.2-3.7-6.1-5.6-13.5-5.6-22.2s1.7-15.5,5-21.9c3.3-6.4,8.3-11.9,14.8-16.4,6.5-4.5,14.7-7.9,24.3-10.2,9.7-2.4,20.8-3.6,33.3-3.6s19.8,1.1,28.6,3.3c8.8,2.2,16.6,5.5,23.3,10,6.7,4.5,12,10.1,15.8,16.9,3.8,6.8,5.7,15.1,5.7,24.8v3.4h-26.8v-4.3c0-6.4-2-12-6-16.5-4-4.6-9.4-8.1-16.4-10.5-6.9-2.5-14.8-3.7-23.5-3.7s-20.9,1.1-28.5,3.3c-7.6,2.2-13.2,5.3-16.9,9.4-3.7,4.1-5.6,8.7-5.6,13.8s1.9,10.8,5.6,14.8c3.7,4,8.6,7.3,14.7,9.8,6.1,2.6,13,4.9,20.8,7,7.8,2.1,15.7,4.2,23.8,6.4,8.1,2.2,15.9,4.7,23.6,7.4,7.7,2.8,14.6,6.2,20.8,10.2,6.2,4.1,11.1,9.2,14.7,15.4,3.6,6.2,5.4,13.7,5.4,22.6,0,13.9-3.4,25.1-10.2,33.7-6.8,8.6-16.2,14.9-28.2,18.9-12,4-25.8,6-41.6,6Z"/>
    <path class="st0" d="M1314.3,213.7V7.9h25v74.9h2c3.8-5.1,8.1-9.3,12.8-12.5,4.7-3.2,10-5.6,15.8-7.3,5.8-1.6,12.1-2.4,18.9-2.4s17.8,1.6,24.9,4.8c7.1,3.2,12.7,8.4,16.8,15.7,4.1,7.2,6.1,17,6.1,29.3v103.3h-25v-99.9c0-6.3-.8-11.4-2.4-15.4-1.6-4-3.8-7.1-6.5-9.4-2.8-2.3-6.1-3.9-10-4.8-3.9-.9-8.2-1.4-12.9-1.4-7,0-13.7,1.7-19.9,5-6.3,3.3-11.2,8.2-14.9,14.5-3.7,6.4-5.6,14.2-5.6,23.5v87.9h-25Z"/>
    <path class="st0" d="M1521,217.1c-14.4,0-26-3.7-34.7-11.1-8.7-7.4-13.1-20.3-13.1-38.7V64h25v99.9c0,6.3.8,11.4,2.3,15.4,1.5,4,3.7,7.1,6.5,9.4,2.8,2.3,6.2,3.9,10.1,4.8,3.9,1,8.1,1.4,12.7,1.4,7.2,0,13.8-1.7,19.9-5.1,6.1-3.4,11.1-8.4,14.9-14.9,3.9-6.5,5.8-14.2,5.8-22.9V64h25v149.7h-20.2l-2.3-22.5h-2c-4,6.1-8.5,11-13.5,14.8-5,3.8-10.6,6.6-16.8,8.4-6.2,1.8-12.8,2.7-19.8,2.7Z"/>
    <path class="st0" d="M1669.5,217.1c-7.8,0-13.9-1.5-18.2-4.4-4.4-2.9-7.5-6.8-9.4-11.7-1.9-4.8-2.8-10-2.8-15.5v-100.5h-19.4v-21.1h19.9l4.6-41.8h19.9v41.8h28.2v21.1h-28.2v96.8c0,4.7.9,8.3,2.6,10.7,1.7,2.4,4.9,3.6,9.7,3.6h15.9v16.5c-1.9,1-4.2,1.7-6.8,2.3-2.7.6-5.4,1.1-8.1,1.6-2.8.5-5.4.7-7.8.7Z"/>
    <path class="st0" d="M1754.1,217.1c-7.8,0-13.9-1.5-18.2-4.4-4.4-2.9-7.5-6.8-9.4-11.7-1.9-4.8-2.8-10-2.8-15.5v-100.5h-19.4v-21.1h19.9l4.6-41.8h19.9v41.8h28.2v21.1h-28.2v96.8c0,4.7.9,8.3,2.6,10.7,1.7,2.4,4.9,3.6,9.7,3.6h15.9v16.5c-1.9,1-4.2,1.7-6.8,2.3-2.7.6-5.4,1.1-8.1,1.6-2.8.5-5.4.7-7.8.7Z"/>
    <path class="st0" d="M1803.6,213.7V7.9h25v205.8h-25Z"/>
    <path class="st0" d="M1927.4,217.1c-14.8,0-27.3-2.8-37.4-8.4-10.2-5.6-17.8-14.2-23.1-25.8-5.2-11.6-7.8-26.3-7.8-44.1s2.6-32.8,7.8-44.3c5.2-11.5,12.9-20,23.2-25.6,10.2-5.6,23.1-8.4,38.4-8.4s25.8,2.7,35.3,8.1c9.5,5.4,16.7,13.5,21.5,24.2,4.8,10.7,7.3,24.1,7.3,40.3v12h-107.6c.4,12,2.1,21.8,5.3,29.5,3.1,7.7,7.8,13.3,14.1,16.8,6.3,3.5,14.1,5.3,23.6,5.3s12.1-.8,16.9-2.4c4.8-1.6,8.9-3.9,12.2-7,3.3-3,5.8-6.6,7.5-10.8,1.7-4.2,2.7-8.7,2.8-13.7h24.5c-.2,8-1.7,15.3-4.6,22.1-2.8,6.7-7,12.5-12.5,17.2-5.5,4.7-12.2,8.4-20.2,11.1-8,2.7-17.1,4-27.3,4ZM1885.6,126.3h81.1c0-8.3-1-15.4-2.8-21.1-1.9-5.7-4.6-10.3-8.1-13.9-3.5-3.6-7.6-6.2-12.2-7.8-4.7-1.6-9.9-2.4-15.8-2.4-8.7,0-16.1,1.6-22.2,4.8-6.1,3.2-10.7,8.2-13.9,14.8-3.2,6.6-5.2,15.2-6,25.6Z"/>
  </g>
  <g>
    <path class="st0" d="M7.4,213.7V18.4h156v34.7H50.1v43.5h100.2v34.4H50.1v47.5h115v35H7.4Z"/>
    <path class="st0" d="M182.8,213.7l54.4-77.7-50.4-72h47.5l28.5,45h1.4l28.7-45h44.7l-50.7,71.7,53.5,78h-46.7l-32.4-50.9h-1.4l-32.4,50.9h-44.7Z"/>
    <path class="st0" d="M361.2,264.3V64h32.4l3.4,20.2h2c4.9-8.2,11.4-14.1,19.4-17.9,8-3.8,16.8-5.7,26.5-5.7s23.3,2.8,32.3,8.3c9,5.5,15.9,14,20.8,25.6,4.8,11.6,7.3,26.5,7.3,44.7s-2.5,32.3-7.4,43.8c-4.9,11.6-11.8,20.2-20.6,25.8-8.8,5.6-19.1,8.4-30.9,8.4s-12.4-.7-17.9-2.1c-5.5-1.4-10.4-3.7-14.8-6.7-4.4-3-8.1-6.7-11.1-11.1h-1.7v67.2h-39.6ZM432.7,184.6c8,0,14.3-1.6,18.9-4.7,4.6-3.1,8-7.9,10.1-14.2,2.1-6.4,3.1-14.2,3.1-23.5v-6.5c0-9.5-1-17.4-3.1-23.8-2.1-6.4-5.5-11.1-10.1-14.2-4.7-3.1-11-4.7-18.9-4.7s-13.5,1.7-18.2,5.1c-4.7,3.4-8.3,8.4-10.5,14.8-2.3,6.5-3.4,14.2-3.4,23.3v4.8c0,6.6.7,12.7,2,18.1,1.3,5.4,3.3,10,5.8,13.8,2.6,3.8,5.8,6.7,9.8,8.7s8.8,3,14.5,3Z"/>
    <path class="st0" d="M534.3,213.7V64h32.7l3.1,23.3h2c1.9-4.9,4.4-9.4,7.4-13.5,3-4.1,6.8-7.4,11.4-9.8,4.6-2.5,9.9-3.7,15.9-3.7s6.2.3,8.8,1c2.7.7,4.6,1.3,6,1.9v35.9h-12.2c-5.9,0-11.1.8-15.5,2.4-4.5,1.6-8.2,4.1-11.2,7.5-3,3.4-5.3,7.6-6.7,12.5-1.4,4.9-2.1,10.7-2.1,17.4v74.9h-39.6Z"/>
    <path class="st0" d="M707.6,217.1c-16.5,0-30.4-2.8-41.6-8.4-11.2-5.6-19.6-14.2-25.3-25.8-5.7-11.6-8.5-26.3-8.5-44.1s2.8-32.8,8.5-44.3c5.7-11.5,14.1-20,25.2-25.6,11.1-5.6,24.7-8.4,40.8-8.4s28,2.7,38.4,8.1c10.4,5.4,18.3,13.8,23.6,25,5.3,11.3,8,25.9,8,43.7v10.2h-104.5c.4,8.7,1.8,16.1,4.1,22.2,2.4,6.1,6.1,10.6,11.1,13.5,5,2.9,11.7,4.4,20.1,4.4s8.7-.6,12.4-1.7c3.7-1.1,6.9-2.8,9.5-5.1,2.7-2.3,4.7-5.1,6.3-8.5,1.5-3.4,2.3-7.3,2.3-11.7h38.7c0,9.5-1.7,17.7-5.1,24.8-3.4,7-8.2,12.9-14.2,17.5-6.1,4.7-13.3,8.2-21.8,10.5-8.4,2.4-17.8,3.6-28,3.6ZM672.9,122.6h63.2c0-5.7-.7-10.6-2.1-14.8-1.4-4.2-3.4-7.6-5.8-10.2-2.5-2.7-5.5-4.6-9-5.8-3.5-1.2-7.4-1.8-11.8-1.8-7.2,0-13.2,1.2-18.1,3.6-4.8,2.4-8.5,6-11.1,10.8-2.6,4.8-4.3,11-5.3,18.4Z"/>
    <path class="st0" d="M866.4,217.1c-10.4,0-19.8-1.1-28.2-3.4-8.4-2.3-15.5-5.5-21.3-9.5-5.9-4.1-10.4-9-13.5-14.7-3.1-5.7-4.7-12.1-4.7-19.4v-2.3c0-.8,0-1.3.3-1.7h38.1v2.3c.2,4.7,1.7,8.6,4.6,11.5,2.8,2.9,6.6,5.1,11.2,6.4,4.6,1.3,9.5,2,14.7,2s9-.4,13.2-1.3c4.3-.9,7.9-2.4,10.8-4.7,2.9-2.3,4.4-5.2,4.4-8.8s-1.8-8.1-5.6-10.5c-3.7-2.5-8.5-4.5-14.5-6-6-1.5-12.5-3.2-19.5-5.1-6.5-1.5-12.9-3.3-19.4-5.3-6.5-2-12.3-4.6-17.5-7.8-5.2-3.2-9.4-7.4-12.7-12.7-3.2-5.2-4.8-11.8-4.8-19.8s1.7-14.6,5.1-20.3c3.4-5.8,8.1-10.6,14.1-14.4,6-3.8,13-6.6,21.1-8.4,8.1-1.8,16.7-2.7,26-2.7s16.9.9,24.5,2.7c7.6,1.8,14.2,4.5,19.9,8,5.7,3.5,10.1,7.9,13.4,13.1,3.2,5.2,4.8,11.1,4.8,17.5v3.7c0,1.1,0,1.9-.3,2.3h-37.9v-2.3c0-3.4-1-6.3-3.1-8.7-2.1-2.4-5.1-4.2-9-5.6-3.9-1.3-8.6-2-14.1-2s-7.3.3-10.4.9-5.8,1.4-8.1,2.6-4,2.5-5.3,4.1c-1.2,1.6-1.9,3.6-1.9,5.8,0,3.2,1.4,5.8,4.1,7.8,2.7,2,6.4,3.7,11,5,4.6,1.3,9.6,2.8,15.1,4.3,6.8,1.9,14,3.7,21.5,5.6,7.5,1.8,14.5,4.2,20.9,7.3,6.4,3,11.7,7.4,15.7,13,4,5.6,6,13.1,6,22.6s-1.8,16.8-5.3,23.1c-3.5,6.3-8.4,11.3-14.7,15.1-6.3,3.8-13.6,6.5-21.9,8.3-8.4,1.7-17.4,2.6-27,2.6Z"/>
    <path class="st0" d="M1024.7,217.1c-10.4,0-19.8-1.1-28.2-3.4-8.4-2.3-15.5-5.5-21.3-9.5-5.9-4.1-10.4-9-13.5-14.7-3.1-5.7-4.7-12.1-4.7-19.4v-2.3c0-.8,0-1.3.3-1.7h38.1v2.3c.2,4.7,1.7,8.6,4.6,11.5,2.8,2.9,6.6,5.1,11.2,6.4,4.6,1.3,9.5,2,14.7,2s9-.4,13.2-1.3c4.3-.9,7.9-2.4,10.8-4.7,2.9-2.3,4.4-5.2,4.4-8.8s-1.8-8.1-5.6-10.5c-3.7-2.5-8.5-4.5-14.5-6-6-1.5-12.5-3.2-19.5-5.1-6.5-1.5-12.9-3.3-19.4-5.3-6.5-2-12.3-4.6-17.5-7.8-5.2-3.2-9.4-7.4-12.7-12.7-3.2-5.2-4.8-11.8-4.8-19.8s1.7-14.6,5.1-20.3c3.4-5.8,8.1-10.6,14.1-14.4,6-3.8,13-6.6,21.1-8.4,8.1-1.8,16.7-2.7,26-2.7s16.9.9,24.5,2.7c7.6,1.8,14.2,4.5,19.9,8,5.7,3.5,10.1,7.9,13.4,13.1,3.2,5.2,4.8,11.1,4.8,17.5v3.7c0,1.1,0,1.9-.3,2.3h-37.9v-2.3c0-3.4-1-6.3-3.1-8.7-2.1-2.4-5.1-4.2-9-5.6-3.9-1.3-8.6-2-14.1-2s-7.3.3-10.4.9-5.8,1.4-8.1,2.6-4,2.5-5.3,4.1c-1.2,1.6-1.9,3.6-1.9,5.8,0,3.2,1.4,5.8,4.1,7.8,2.7,2,6.4,3.7,11,5,4.6,1.3,9.6,2.8,15.1,4.3,6.8,1.9,14,3.7,21.5,5.6,7.5,1.8,14.5,4.2,20.9,7.3,6.4,3,11.7,7.4,15.7,13,4,5.6,6,13.1,6,22.6s-1.8,16.8-5.3,23.1c-3.5,6.3-8.4,11.3-14.7,15.1-6.3,3.8-13.6,6.5-21.9,8.3-8.4,1.7-17.4,2.6-27,2.6Z"/>
  </g>
</svg>